HIERARCHY
ROOT Hips
{
	OFFSET 0.00000 0.00000 0.00000
	CHANNELS 6 Xposition Yposition Zposition Zrotation Yrotation Xrotation 
	JOINT LHipJoint
	{
		OFFSET 0 0 0
		CHANNELS 3 Zrotation Yrotation Xrotation
		JOINT LeftUpLeg
		{
			OFFSET 1.62067 -1.77917 0.70989
			CHANNELS 3 Zrotation Yrotation Xrotation
			JOINT LeftLeg
			{
				OFFSET 2.34532 -6.44371 0.00000
				CHANNELS 3 Zrotation Yrotation Xrotation
				JOINT LeftFoot
				{
					OFFSET 2.74224 -7.53425 0.00000
					CHANNELS 3 Zrotation Yrotation Xrotation
					JOINT LeftToeBase
					{
						OFFSET 0.17032 -0.46794 2.08086
						CHANNELS 3 Zrotation Yrotation Xrotation
						End Site
						{
							OFFSET 0.00000 -0.00000 1.07476
						}
					}
				}
			}
		}
	}
	JOINT RHipJoint
	{
		OFFSET 0 0 0
		CHANNELS 3 Zrotation Yrotation Xrotation
		JOINT RightUpLeg
		{
			OFFSET -1.55811 -1.77917 0.70989
			CHANNELS 3 Zrotation Yrotation Xrotation
			JOINT RightLeg
			{
				OFFSET -2.33243 -6.40830 0.00000
				CHANNELS 3 Zrotation Yrotation Xrotation
				JOINT RightFoot
				{
					OFFSET -2.78798 -7.65993 0.00000
					CHANNELS 3 Zrotation Yrotation Xrotation
					JOINT RightToeBase
					{
						OFFSET -0.22707 -0.62388 2.04059
						CHANNELS 3 Zrotation Yrotation Xrotation
						End Site
						{
							OFFSET -0.00000 -0.00000 1.07030
						}
					}
				}
			}
		}
	}
	JOINT LowerBack
	{
		OFFSET 0 0 0
		CHANNELS 3 Zrotation Yrotation Xrotation
		JOINT Spine
		{
			OFFSET 0.02203 1.91565 0.07161
			CHANNELS 3 Zrotation Yrotation Xrotation
			JOINT Spine1
			{
				OFFSET 0.01740 1.90525 0.11636
				CHANNELS 3 Zrotation Yrotation Xrotation
				JOINT Neck
				{
					OFFSET 0 0 0
					CHANNELS 3 Zrotation Yrotation Xrotation
					JOINT Neck1
					{
						OFFSET -0.10841 1.83566 0.05067
						CHANNELS 3 Zrotation Yrotation Xrotation
						JOINT Head
						{
							OFFSET 0.06601 1.74760 -0.50505
							CHANNELS 3 Zrotation Yrotation Xrotation
							End Site
							{
								OFFSET 0.03102 1.85215 -0.17697
							}
						}
					}
				}
				JOINT LeftShoulder
				{
					OFFSET 0 0 0
					CHANNELS 3 Zrotation Yrotation Xrotation
					JOINT LeftArm
					{
						OFFSET 2.87059 1.35470 0.16111
						CHANNELS 3 Zrotation Yrotation Xrotation
						JOINT LeftForeArm
						{
							OFFSET 5.43592 -0.00000 0.00000
							CHANNELS 3 Zrotation Yrotation Xrotation
							JOINT LeftHand
							{
								OFFSET 3.25460 -0.00000 0.00000
								CHANNELS 3 Zrotation Yrotation Xrotation
								JOINT LeftFingerBase
								{
									OFFSET 0 0 0
									CHANNELS 3 Zrotation Yrotation Xrotation
									JOINT LeftHandIndex1
									{
										OFFSET 0.49824 -0.00000 0.00000
										CHANNELS 3 Zrotation Yrotation Xrotation
										End Site
										{
											OFFSET 0.40170 -0.00000 0.00000
										}
									}
								}
								JOINT LThumb
								{
									OFFSET 0 0 0
									CHANNELS 3 Zrotation Yrotation Xrotation
									End Site
									{
										OFFSET 0.40783 -0.00000 0.40783
									}
								}
							}
						}
					}
				}
				JOINT RightShoulder
				{
					OFFSET 0 0 0
					CHANNELS 3 Zrotation Yrotation Xrotation
					JOINT RightArm
					{
						OFFSET -2.86643 1.23488 0.45957
						CHANNELS 3 Zrotation Yrotation Xrotation
						JOINT RightForeArm
						{
							OFFSET -5.33830 -0.00000 0.00000
							CHANNELS 3 Zrotation Yrotation Xrotation
							JOINT RightHand
							{
								OFFSET -3.23148 -0.00000 0.00000
								CHANNELS 3 Zrotation Yrotation Xrotation
								JOINT RightFingerBase
								{
									OFFSET 0 0 0
									CHANNELS 3 Zrotation Yrotation Xrotation
									JOINT RightHandIndex1
									{
										OFFSET -0.46364 -0.00000 0.00000
										CHANNELS 3 Zrotation Yrotation Xrotation
										End Site
										{
											OFFSET -0.37380 -0.00000 0.00000
										}
									}
								}
								JOINT RThumb
								{
									OFFSET 0 0 0
									CHANNELS 3 Zrotation Yrotation Xrotation
									End Site
									{
										OFFSET -0.37951 -0.00000 0.37951
									}
								}
							}
						}
					}
				}
			}
		}
	}
}
MOTION
Frames: 9
Frame Time: .0083333
2.8388 16.7575 -0.1506 11.1083 4.7344 15.2361 0.0000 0.0000 0.0000 -33.4290 -17.3248 -28.9706 4.0497 12.2262 36.5369 0.7775 4.7019 -19.0125 0.1189 2.2229 6.1220 0.0000 0.0000 0.0000 -10.6739 38.9792 -43.0151 -14.2086 -19.1761 72.8406 0.2055 8.7445 6.9530 -4.9929 13.3758 -40.7919 0.2368 1.7222 -6.9375 -7.1321 2.4695 -2.1156 -7.3874 1.2536 2.0285 5.0781 14.7325 -3.1346 -1.4604 24.5504 47.9171 2.6646 10.6605 20.4514 -0.0000 0.0000 0.0000 -73.8522 -2.9762 42.9996 23.4676 -34.5962 -7.4021 -0.0000 0.0000 -74.0407 40.2505 -10.0945 -8.4401 -7.1250 0.0000 -0.0000 9.1991 16.9549 -6.1976 -0.0000 0.0000 0.0000 90.2834 -6.4849 34.4784 -24.5184 35.7077 -8.0071 0.0000 -0.0000 -38.0143 -11.2700 -48.2809 8.4603 7.1250 -0.0000 -0.0000 51.4776 -73.4098 -37.0366
2.8382 16.7601 -0.1504 11.0798 4.7919 15.2051 0.0000 0.0000 0.0000 -33.4067 -17.3059 -28.9182 4.0446 12.2195 36.5131 0.7698 4.7339 -18.9549 0.1101 2.1394 5.8912 0.0000 0.0000 0.0000 -10.5655 38.9527 -42.9251 -14.2040 -19.1748 72.8266 0.2009 8.6863 6.9926 -4.9828 13.3643 -40.7481 0.2362 1.6580 -6.8802 -7.0771 2.3802 -2.1016 -7.3369 1.2079 1.9969 4.9129 14.8331 -3.3703 -1.2726 24.7129 48.1331 2.8444 10.6899 20.5980 -0.0000 0.0000 0.0000 -73.9393 -2.9380 42.8314 23.4896 -34.6199 -7.4146 -0.0000 0.0000 -73.9410 40.3129 -10.1053 -8.4672 -7.1250 0.0000 -0.0000 9.2396 16.9306 -6.2306 -0.0000 0.0000 0.0000 90.1980 -6.4224 34.4862 -24.4738 35.6613 -7.9811 0.0000 -0.0000 -37.6557 -10.8698 -48.2525 8.1531 7.1250 -0.0000 -0.0000 51.7304 -73.2469 -37.0818
2.8386 16.7561 -0.1535 11.1098 4.7867 15.2373 0.0000 0.0000 0.0000 -33.4639 -17.2898 -28.8987 4.0338 12.2052 36.4618 0.7610 4.8325 -18.9285 0.0853 1.8839 5.1849 0.0000 0.0000 0.0000 -10.6560 38.9198 -43.0316 -14.2092 -19.1763 72.8424 0.1971 8.6623 7.0932 -4.9460 13.3227 -40.5887 0.2320 1.6539 -6.8446 -7.1012 2.3714 -2.1517 -7.3628 1.2016 1.9246 4.9511 14.8269 -3.2871 -1.2538 24.6898 48.1516 2.8351 10.6934 20.5904 -0.0000 0.0000 0.0000 -73.8960 -2.8435 42.8763 23.5424 -34.6766 -7.4446 -0.0000 0.0000 -73.9826 40.1786 -10.3629 -8.6370 -7.1250 0.0000 -0.0000 9.1059 16.6272 -6.1990 -0.0000 0.0000 0.0000 90.2040 -6.5092 34.5186 -24.5021 35.6908 -7.9976 0.0000 -0.0000 -37.7310 -11.9561 -47.9892 8.9415 7.1250 -0.0000 -0.0000 50.0634 -73.4991 -35.9799
2.8405 16.7524 -0.1523 11.1263 4.7914 15.2495 0.0000 0.0000 0.0000 -33.5334 -17.2427 -28.7738 3.9972 12.1567 36.2885 0.7513 4.8922 -18.8678 0.0666 1.6654 4.5817 0.0000 0.0000 0.0000 -10.6740 38.8748 -43.0214 -14.2005 -19.1737 72.8157 0.1911 8.5732 7.1069 -4.8643 13.2293 -40.2330 0.2925 1.7129 -6.8575 -7.1782 2.4468 -2.1988 -7.4747 1.2390 1.8985 5.0438 14.7712 -3.2220 -1.1158 24.5311 48.2151 2.8522 10.6651 20.5883 -0.0000 -0.0000 0.0000 -73.7670 -2.7837 43.1115 23.5951 -34.7331 -7.4746 -0.0000 0.0000 -74.0895 40.2629 -10.3686 -8.6671 -7.1250 0.0000 -0.0000 9.1619 16.6054 -6.2426 -0.0000 -0.0000 0.0000 90.3193 -6.6269 34.4071 -24.5026 35.6912 -7.9979 0.0000 -0.0000 -37.7911 -12.7054 -47.9671 9.5066 7.1250 -0.0000 -0.0000 49.3531 -73.7639 -35.6597
2.8441 16.7584 -0.1428 11.2267 4.8576 15.1587 0.0000 0.0000 0.0000 -33.6855 -17.2342 -28.5313 3.9721 12.1231 36.1690 0.7587 4.7816 -18.8720 0.0879 1.9124 5.2637 0.0000 0.0000 0.0000 -10.5763 38.7411 -42.6841 -14.1770 -19.1669 72.7444 0.1952 8.5807 6.9416 -4.8726 13.2388 -40.2692 0.2642 1.7323 -6.8959 -7.2476 2.4821 -2.1406 -7.5288 1.2598 1.9872 5.2297 14.6393 -2.9296 -1.4412 24.3405 47.8440 2.5835 10.6245 20.3527 -0.0000 0.0000 0.0000 -73.7042 -2.7878 43.2308 23.6583 -34.8008 -7.5106 -0.0000 0.0000 -74.0675 40.4775 -10.1606 -8.5614 -7.1250 0.0000 -0.0000 9.3419 16.8322 -6.3218 -0.0000 0.0000 0.0000 90.4080 -6.6061 34.3760 -24.4692 35.6566 -7.9785 0.0000 -0.0000 -38.0835 -12.2607 -47.9342 9.1646 7.1250 -0.0000 -0.0000 49.6439 -73.5802 -35.7197
2.8504 16.7814 -0.1245 11.5474 5.5213 14.7246 0.0000 0.0000 0.0000 -34.1297 -17.3625 -27.5704 3.9341 12.0722 35.9880 0.7795 4.5091 -18.9101 0.1100 2.1388 5.8893 0.0000 0.0000 0.0000 -9.9929 38.1813 -41.3872 -14.1305 -19.1531 72.6026 0.2017 8.5498 6.5291 -4.9889 13.3713 -40.7748 0.1383 1.5027 -6.7113 -7.2923 2.1948 -1.8517 -7.5323 1.1228 2.1434 5.0665 14.7296 -3.3566 -1.0480 24.4377 48.2517 2.8820 10.6300 20.6306 -0.0000 -0.0000 0.0000 -73.6856 -2.8352 43.2598 23.7300 -34.8775 -7.5516 -0.0000 0.0000 -74.0639 40.4720 -10.2015 -8.5933 -7.1250 0.0000 -0.0000 9.3313 16.7813 -6.3249 -0.0000 -0.0000 0.0000 90.4219 -6.4736 34.4017 -24.4566 35.6434 -7.9711 0.0000 -0.0000 -38.3494 -11.8638 -47.9481 8.8660 7.1250 -0.0000 -0.0000 50.0258 -73.4417 -35.8946
2.8547 16.7782 -0.1336 11.2319 4.8368 15.2499 0.0000 0.0000 0.0000 -33.7215 -17.2610 -28.4396 3.9264 12.0618 35.9509 0.7723 4.6535 -18.9286 0.1168 2.2036 6.0686 0.0000 0.0000 0.0000 -10.5887 38.7446 -42.5673 -14.1226 -19.1508 72.5786 0.2104 8.7423 6.7069 -5.0892 13.4836 -41.2067 0.3470 1.7334 -7.2087 -7.2493 2.4955 -2.0414 -7.5699 1.2736 2.2704 5.1253 14.6545 -3.1322 -1.4561 24.3828 47.8235 2.6195 10.6102 20.3773 0.0000 -0.0000 0.0000 -73.7127 -2.8575 43.1829 23.7632 -34.9128 -7.5706 -0.0000 0.0000 -74.0845 40.3994 -10.2409 -8.6039 -7.1250 0.0000 -0.0000 9.2756 16.7436 -6.2938 0.0000 -0.0000 0.0000 90.3826 -6.4144 34.4267 -24.5046 35.6933 -7.9990 0.0000 -0.0000 -38.3120 -12.0736 -47.6655 8.9852 7.1250 -0.0000 -0.0000 49.0487 -73.3557 -35.0297
2.8532 16.7803 -0.1371 11.1072 4.8222 15.2223 0.0000 0.0000 0.0000 -33.5685 -17.2482 -28.4499 3.9185 12.0512 35.9132 0.7685 4.6506 -18.8879 0.1214 2.2460 6.1860 0.0000 0.0000 0.0000 -10.4557 38.8661 -42.5640 -14.1102 -19.1471 72.5407 0.2032 8.6349 6.7259 -5.1160 13.5132 -41.3214 0.4353 1.7046 -7.1301 -7.1793 2.4455 -2.0353 -7.5518 1.2476 2.2265 4.8852 14.7797 -3.5449 -1.0349 24.5415 48.2569 2.9503 10.6295 20.6504 0.0000 0.0000 0.0000 -73.7834 -2.8567 43.0145 23.7744 -34.9248 -7.5770 -0.0000 0.0000 -74.0593 40.2423 -10.2553 -8.5687 -7.1250 0.0000 -0.0000 9.1668 16.7525 -6.2163 0.0000 0.0000 0.0000 90.2995 -6.4142 34.5718 -24.5469 35.7372 -8.0238 0.0000 -0.0000 -38.3535 -12.3676 -46.9797 9.1077 7.1250 -0.0000 -0.0000 46.9125 -73.0525 -33.0576
2.8518 16.7787 -0.1393 11.1103 4.7977 15.2145 0.0000 0.0000 0.0000 -33.5608 -17.2399 -28.5043 3.9371 12.0762 36.0021 0.7716 4.6487 -18.9179 0.1267 2.2948 6.3210 0.0000 0.0000 0.0000 -10.4586 38.9186 -42.5666 -14.1103 -19.1472 72.5411 0.2043 8.6273 6.6464 -5.1613 13.5632 -41.5151 0.4142 1.7113 -7.0939 -7.1832 2.4546 -2.0392 -7.5436 1.2516 2.2028 4.9411 14.7504 -3.4819 -1.1213 24.5154 48.2177 2.8905 10.6234 20.6396 0.0000 0.0000 0.0000 -73.7718 -2.8787 43.0731 23.7791 -34.9298 -7.5797 -0.0000 0.0000 -74.0956 40.2840 -10.3612 -8.6674 -7.1250 0.0000 -0.0000 9.1774 16.6111 -6.2523 0.0000 0.0000 0.0000 90.2865 -6.4013 34.6062 -24.5182 35.7075 -8.0070 0.0000 -0.0000 -38.4046 -12.3658 -46.5848 9.0486 7.1250 -0.0000 -0.0000 45.8754 -72.8064 -32.0250
